<svg x="0" y="0" width="935" height="935" viewBox="0 0 935 935" version="1.1" xmlns="http://www.w3.org/2000/svg" style="display: block;margin-left: auto;margin-right: auto;">
<defs>
<clipPath id="c_1"><path d="M0,0H935V935H0Z"/></clipPath>
<style>
text { white-space: pre; }
path, image { pointer-events: none; }

.s0{font-size:29.03px;font-family:SourceSansVariable-Roman_5a;fill:#B92028;}
.s1{font-size:19.86px;font-family:SourceSansVariable-Roman_59;fill:#B92028;}

.g0{fill:#FFF;}
.g1{fill:#1F2557;}

</style>

</defs>
<path d="M0 0V935H935V0Z" fill="#FFFFFF" stroke="none"/>
<g clip-path="url(#c_1)">
<path d="M0 935H935V0H0V935Z" class="g0"/>
<path d="M234.5 448h13.7l4.2 24.7c.7 5.5 1.6 11.1 2.4 16.7h.3c1.2-5.6 2.4-11.2 3.6-16.7l6.4-24.7h11.3l6.4 24.7c1.2 5.3 2.4 11 3.6 16.7h.4c.7-5.7 1.6-11.3 2.4-16.7l4.1-24.7h12.8l-10.6 52.8H278.7l-5.8-24c-1-4-1.8-8.3-2.4-12.2h-.4c-.7 3.9-1.4 8.2-2.4 12.2l-5.6 24H245.5Z" class="g1"/>
<path d="M340.9 480.7c0-6.9-2.8-11.4-8.3-11.4c-5.6 0-8.3 4.5-8.3 11.4c0 7 2.7 11.5 8.3 11.5c5.5 0 8.3-4.5 8.3-11.5m-30.3 0c0-13.3 10.5-21 22-21c11.4 0 22 7.7 22 21c0 13.3-10.6 21.1-22 21.1c-11.5 0-22-7.8-22-21.1Z" class="g1"/>
<path d="M363.7 460.6h11l.9 7h.4c3.3-5.3 8.2-7.9 12.8-7.9c2.6 0 4.1 .3 5.4 .8L392 470.7c-1.6-.3-3-.6-4.9-.6c-3.4 0-7.6 1.9-10 7.4v23.3H363.7Z" class="g1"/>
<path d="M400 444.1h13.1v32.5h.3l14.4-16h14.5l-15.8 16.6l17 23.6H429l-10.2-15.7l-5.7 5.8v9.9H400Z" class="g1"/>
<path d="M447.2 494.1l7.7-8.1c4.2 3.2 9.7 5.5 14.6 5.5c5.6 0 8.3-2 8.3-5.1c0-3.3-3.3-4.4-8.5-6.3l-7.7-2.9c-6.2-2.3-12-6.7-12-14.4c0-8.8 8.8-15.7 21.1-15.7c6.9 0 14 2.4 19.1 6.9l-6.8 7.5c-3.9-2.7-7.6-4.1-12.3-4.1c-4.6 0-7.6 1.7-7.6 4.7c0 3.2 3.9 4.4 9.1 6.2l7.6 2.8c7.2 2.6 11.8 6.9 11.8 14.3c0 8.8-8.3 16.4-22.4 16.4c-7.7 0-16-2.6-22-7.7Z" class="g1"/>
<path d="M497.9 480.7c0-13.3 11.1-21 23.6-21c5.5 0 9.8 1.7 13.2 4.3l-6.3 7.6c-2.2-1.6-4-2.3-6.2-2.3c-6.4 0-10.5 4.5-10.5 11.4c0 7 4.3 11.5 10.1 11.5c2.9 0 5.8-1.3 8.1-3l5.3 7.8c-4.4 3.4-10 4.8-14.9 4.8c-12.6 0-22.4-7.8-22.4-21.1Z" class="g1"/>
<path d="M568.2 480.7c0-6.9-2.7-11.4-8.3-11.4c-5.5 0-8.3 4.5-8.3 11.4c0 7 2.8 11.5 8.3 11.5c5.6 0 8.3-4.5 8.3-11.5m-30.3 0c0-13.3 10.6-21 22-21c11.5 0 22 7.7 22 21c0 13.3-10.5 21.1-22 21.1c-11.4 0-22-7.8-22-21.1Z" class="g1"/>
<path d="M590.7 485.6v-25h13.4V484c0 5.8 1.7 7.6 5.6 7.6c3.3 0 5.4-1.2 8-4.4V460.6h13.4v40.2H620.2l-1-5.6h-.3c-3.8 4-8.1 6.6-14.2 6.6c-9.8 0-14-6.2-14-16.2Z" class="g1"/>
<path d="M644.6 486.2V470h-6.1v-8.9l6.9-.5L647 450h11v10.6h10.9V470H658v16c0 4.6 2.4 6.4 5.9 6.4c1.5 0 3.1-.4 4.3-.7l2.1 8.6c-2.4 .7-5.7 1.5-10.1 1.5c-11.1 0-15.6-6.3-15.6-15.6Z" class="g1"/>
<text x="312.1" y="532.5" dx="0 2.4 2.2 2.2 2.4 2.4 2.4 2.4 2.4 2.4 2.4 2.4 2.4 2.4 2.4 2.1 2.4 2.4" class="s0"> </text>
<text x="676.6" y="458.2" class="s1"> </text>

</g>

<style>

@font-face {
	font-family: SourceSansVariable-Roman_59;
	src: url("fonts/SourceSansVariable-Roman_59.woff") format("woff");
}

@font-face {
	font-family: SourceSansVariable-Roman_5a;
	src: url("fonts/SourceSansVariable-Roman_5a.woff") format("woff");
}

</style>

</svg>
