<?xml version="1.0" standalone="no"?>
<!DOCTYPE svg PUBLIC "-//W3C//DTD SVG 20010904//EN"
 "http://www.w3.org/TR/2001/REC-SVG-20010904/DTD/svg10.dtd">
<svg version="1.0" xmlns="http://www.w3.org/2000/svg"
 width="1348.000000pt" height="536.000000pt" viewBox="0 0 1348.000000 536.000000"
 preserveAspectRatio="xMidYMid meet">

<g transform="translate(0.000000,536.000000) scale(0.100000,-0.100000)"
fill="#000000" stroke="none">
<path d="M5110 3030 l0 -740 175 0 175 0 0 128 1 127 69 75 c52 56 72 72 81
63 6 -6 66 -96 133 -200 l122 -188 194 -3 c155 -2 191 0 183 10 -20 25 -400
553 -417 580 l-18 27 128 133 c71 73 164 170 208 216 l81 82 -195 -1 -195 0
-185 -207 -185 -206 -3 422 -2 422 -175 0 -175 0 0 -740z"/>
<path d="M12400 3620 c0 -174 22 -219 110 -220 54 0 87 20 106 66 17 40 20
274 4 274 -6 0 -10 -47 -10 -121 0 -90 -4 -130 -16 -154 -32 -67 -126 -67
-158 -1 -12 25 -16 65 -16 155 0 74 -4 121 -10 121 -6 0 -10 -47 -10 -120z"/>
<path d="M12730 3570 c0 -107 4 -170 10 -170 6 0 10 26 10 58 1 51 4 61 38
100 l37 43 53 -96 c51 -90 68 -112 77 -103 3 2 -23 51 -56 107 l-59 103 25 32
c13 17 37 46 51 64 15 17 22 32 16 32 -6 0 -48 -43 -94 -95 l-83 -96 -3 96
c-1 52 -7 95 -12 95 -6 0 -10 -68 -10 -170z"/>
<path d="M6879 3688 c-202 -17 -368 -118 -438 -267 -22 -47 -26 -70 -26 -141
1 -106 30 -177 103 -248 64 -62 132 -98 342 -177 95 -36 189 -74 210 -85 81
-41 103 -111 53 -171 -89 -106 -328 -81 -547 58 l-28 18 -100 -105 -100 -105
34 -28 c52 -45 225 -124 318 -146 239 -56 471 -25 631 84 76 52 108 90 147
173 23 49 27 70 27 147 0 82 -3 97 -33 157 -59 120 -124 163 -400 262 -101 37
-201 75 -222 86 -107 55 -107 161 2 204 49 20 176 23 240 6 24 -7 77 -30 120
-52 l76 -39 44 48 c25 26 64 70 89 97 l44 48 -34 29 c-129 107 -344 164 -552
147z"/>
<path d="M780 3663 c1 -5 65 -314 143 -688 l143 -680 219 0 219 0 67 285 c37
157 84 367 105 468 21 100 40 179 44 175 4 -4 14 -53 24 -108 9 -55 44 -213
77 -350 33 -138 72 -301 86 -362 l26 -113 224 0 c123 0 223 1 223 3 0 1 61
306 135 677 74 371 135 680 135 687 0 10 -38 13 -165 13 -163 0 -165 0 -170
-22 -11 -49 -115 -694 -140 -868 -15 -102 -28 -186 -30 -188 -5 -6 -12 23 -59
243 -25 116 -81 349 -126 519 -44 170 -80 311 -80 313 0 2 -67 3 -150 3 l-149
0 -15 -52 c-52 -186 -154 -595 -191 -773 -57 -264 -55 -258 -60 -253 -3 2 -21
112 -40 244 -32 216 -117 738 -131 807 l-6 27 -179 0 c-98 0 -179 -3 -179 -7z"/>
<path d="M11575 3598 c-5 -26 -35 -234 -35 -248 0 -4 -40 -12 -90 -16 l-90 -7
0 -113 0 -113 78 -3 77 -3 6 -275 c6 -309 11 -339 77 -425 71 -93 219 -144
382 -130 84 7 181 24 198 34 17 10 -40 227 -58 222 -8 -2 -42 -6 -76 -8 -81
-7 -126 13 -154 71 -18 39 -20 61 -20 279 l0 237 140 0 140 0 0 120 0 120
-140 0 -140 0 0 140 0 140 -145 0 c-142 0 -145 0 -150 -22z"/>
<path d="M3269 3358 c-303 -28 -517 -280 -495 -583 7 -94 24 -154 67 -236 63
-117 210 -224 359 -260 75 -19 231 -16 308 4 182 48 318 167 383 335 31 80 38
251 14 342 -48 187 -183 322 -380 378 -83 25 -153 30 -256 20z m176 -271 c77
-43 115 -135 115 -277 0 -107 -19 -174 -65 -227 -80 -94 -241 -86 -308 16 -41
62 -52 109 -51 221 0 87 4 113 22 155 27 59 65 102 107 121 48 21 134 17 180
-9z"/>
<path d="M4769 3359 c-95 -15 -198 -78 -251 -154 -18 -25 -35 -45 -39 -45 -3
0 -10 28 -13 63 -4 34 -10 74 -13 90 l-5 27 -144 0 -144 0 0 -525 0 -525 175
0 175 0 0 303 0 303 29 45 c40 62 88 104 146 130 43 19 60 21 135 16 l85 -6
24 112 c13 61 26 122 28 134 5 23 8 22 -117 37 -14 1 -46 0 -71 -5z"/>
<path d="M8214 3359 c-320 -30 -534 -249 -534 -546 0 -165 49 -291 153 -390
111 -107 251 -157 427 -156 119 1 205 19 295 63 107 52 106 45 34 152 -34 51
-65 97 -69 101 -4 4 -27 -4 -51 -18 -159 -91 -335 -45 -402 105 -28 62 -34
180 -14 251 46 158 226 236 369 160 l55 -28 82 100 82 100 -36 24 c-100 68
-235 96 -391 82z"/>
<path d="M9230 3359 c-83 -8 -140 -24 -210 -59 -211 -106 -321 -321 -290 -564
28 -219 167 -379 390 -447 156 -48 373 -22 502 60 165 105 249 255 251 451 1
168 -45 292 -148 395 -125 125 -299 183 -495 164z m143 -258 c47 -18 96 -71
118 -129 17 -45 22 -78 22 -157 0 -118 -24 -192 -75 -242 -41 -40 -76 -53
-138 -53 -62 0 -97 13 -138 53 -51 50 -75 124 -75 242 0 150 38 233 128 279
33 18 120 21 158 7z"/>
<path d="M10100 3028 c1 -350 10 -480 40 -560 87 -234 417 -277 652 -84 65 52
59 55 76 -44 l8 -45 142 -3 142 -3 0 526 0 525 -175 0 -175 0 0 -348 0 -348
-42 -41 c-24 -23 -60 -49 -80 -58 -53 -21 -126 -19 -166 5 -60 37 -62 51 -62
440 l0 350 -180 0 -180 0 0 -312z"/>
<path d="M3790 1725 l0 -265 45 0 c38 0 45 3 45 20 0 25 4 25 38 0 44 -32 81
-34 131 -8 55 29 83 80 89 160 9 125 -45 208 -134 208 -25 0 -58 -7 -74 -15
l-30 -16 0 91 0 90 -55 0 -55 0 0 -265z m225 2 c18 -26 19 -113 2 -147 -16
-33 -58 -47 -92 -32 -24 11 -25 15 -25 97 l0 86 31 13 c38 16 65 11 84 -17z"/>
<path d="M4500 1725 l0 -265 55 0 55 0 0 129 c0 123 1 131 22 145 31 22 75 20
88 -3 5 -11 10 -76 10 -145 l0 -126 55 0 55 0 0 126 c0 146 -12 206 -48 234
-33 27 -106 27 -150 0 -18 -11 -33 -20 -35 -20 -1 0 -1 43 1 95 l3 95 -55 0
-56 0 0 -265z"/>
<path d="M7960 1900 l0 -91 -30 16 c-70 36 -153 7 -192 -67 -29 -56 -31 -165
-4 -221 39 -79 136 -107 203 -59 30 21 31 21 36 2 4 -16 14 -20 46 -20 l41 0
0 265 0 265 -50 0 -50 0 0 -90z m-12 -163 c7 -6 12 -36 12 -83 0 -61 -4 -78
-20 -94 -59 -59 -131 12 -116 115 11 72 72 103 124 62z"/>
<path d="M3030 1772 c0 -144 -3 -182 -16 -200 -20 -29 -70 -29 -100 -1 l-22
21 -31 -23 c-39 -28 -39 -41 -1 -73 93 -78 236 -44 268 62 7 24 12 110 12 216
l0 176 -55 0 -55 0 0 -178z"/>
<path d="M6020 1903 c0 -55 -10 -73 -41 -73 -27 0 -29 -3 -29 -40 0 -38 2 -40
30 -40 l30 0 0 -107 c0 -132 15 -165 81 -183 53 -15 119 -4 119 18 0 43 -12
61 -43 64 -43 4 -57 36 -57 131 l0 77 45 0 45 0 0 45 0 45 -45 0 -45 0 0 45 0
45 -45 0 c-42 0 -45 -2 -45 -27z"/>
<path d="M3395 1826 c-92 -41 -133 -173 -84 -274 63 -130 260 -130 320 1 21
47 25 130 8 174 -13 34 -55 80 -91 99 -34 18 -113 18 -153 0z m115 -86 c25
-25 34 -60 27 -116 -6 -53 -30 -84 -67 -84 -15 0 -35 9 -45 20 -19 21 -31 95
-21 135 8 33 41 65 66 65 11 0 29 -9 40 -20z"/>
<path d="M4990 1688 c0 -175 10 -207 74 -228 42 -14 104 0 131 30 24 27 35 25
35 -5 0 -23 4 -25 45 -25 l45 0 0 191 0 190 -52 -3 -53 -3 -3 -126 c-2 -110
-5 -129 -22 -144 -22 -20 -66 -23 -83 -6 -7 7 -13 63 -15 146 l-4 135 -49 0
-49 0 0 -152z"/>
<path d="M5490 1650 l0 -190 55 0 55 0 0 129 c0 123 1 131 22 145 31 22 75 20
88 -3 5 -11 10 -76 10 -145 l0 -126 55 0 55 0 0 126 c0 204 -24 254 -120 254
-33 0 -58 -7 -83 -24 -37 -26 -47 -24 -47 6 0 15 -8 18 -45 18 l-45 0 0 -190z"/>
<path d="M6560 1650 l0 -190 55 0 55 0 0 129 c0 123 1 131 22 145 27 19 59 21
76 4 8 -8 12 -55 12 -145 l0 -133 55 0 55 0 0 130 c0 126 1 130 24 146 14 8
35 14 48 12 37 -5 48 -42 48 -170 l0 -118 50 0 50 0 0 144 c0 78 -5 157 -11
174 -23 65 -113 83 -182 36 l-38 -25 -30 25 c-41 35 -102 35 -152 2 -37 -26
-47 -24 -47 6 0 15 -8 18 -45 18 l-45 0 0 -190z"/>
<path d="M7325 1824 c-55 -20 -59 -27 -41 -63 9 -17 18 -31 20 -31 2 0 23 7
46 15 54 19 75 19 94 -1 27 -26 19 -42 -26 -49 -132 -22 -191 -90 -154 -179
27 -66 106 -81 182 -35 31 19 32 19 37 -1 4 -16 13 -20 46 -20 l41 0 0 140 c0
153 -7 181 -56 219 -32 25 -126 28 -189 5z m145 -223 c0 -38 -30 -63 -72 -59
-27 2 -34 7 -36 30 -3 28 14 43 67 58 34 9 41 4 41 -29z"/>
<path d="M8305 1821 c-87 -53 -120 -170 -76 -267 42 -92 162 -127 268 -77 l32
15 -16 33 c-14 29 -19 32 -36 24 -10 -6 -39 -11 -64 -11 -49 0 -93 30 -93 64
0 16 10 18 110 18 l110 0 0 53 c0 102 -60 167 -154 167 -32 0 -62 -7 -81 -19z
m129 -83 c29 -41 21 -48 -54 -48 l-71 0 16 29 c16 32 27 39 67 40 17 1 33 -7
42 -21z"/>
<path d="M8975 1821 c-87 -53 -120 -170 -76 -267 42 -92 162 -127 268 -77 l32
15 -16 33 c-14 29 -19 32 -36 24 -10 -6 -39 -11 -64 -11 -49 0 -93 30 -93 64
0 16 10 18 110 18 l110 0 0 53 c0 102 -60 167 -154 167 -32 0 -62 -7 -81 -19z
m129 -83 c29 -41 21 -48 -54 -48 l-71 0 16 29 c16 32 27 39 67 40 17 1 33 -7
42 -21z"/>
<path d="M9405 1824 c-55 -20 -59 -27 -41 -63 9 -17 18 -31 20 -31 2 0 23 7
46 15 54 19 75 19 94 -1 27 -26 19 -42 -26 -49 -132 -22 -191 -90 -154 -179
27 -66 106 -81 182 -35 31 19 32 19 37 -1 4 -16 13 -20 46 -20 l41 0 0 140 c0
153 -7 181 -56 219 -32 25 -126 28 -189 5z m145 -223 c0 -38 -30 -63 -72 -59
-27 2 -34 7 -36 30 -3 28 14 43 67 58 34 9 41 4 41 -29z"/>
<path d="M9874 1830 c-58 -23 -84 -114 -45 -161 10 -13 47 -37 82 -54 67 -31
82 -57 47 -79 -14 -8 -29 -7 -65 7 -27 10 -51 19 -56 20 -4 1 -16 -12 -28 -30
l-20 -32 38 -19 c121 -61 253 -15 253 88 0 51 -34 90 -98 113 -57 21 -77 39
-68 63 6 16 51 16 102 -1 17 -5 26 0 43 24 l22 30 -40 21 c-42 21 -127 26
-167 10z"/>
<path d="M10190 1826 c0 -7 29 -87 65 -177 36 -90 65 -173 65 -185 0 -31 -23
-55 -60 -63 -28 -5 -35 -13 -43 -40 -4 -18 -5 -36 -2 -40 12 -11 92 -3 124 13
16 9 41 35 55 59 21 37 156 415 156 438 0 5 -22 9 -49 9 l-48 0 -26 -92 c-14
-51 -31 -113 -38 -138 l-12 -45 -44 138 -44 137 -49 0 c-36 0 -50 -4 -50 -14z"/>
</g>
</svg>
