<svg xmlns="http://www.w3.org/2000/svg" xmlns:xlink="http://www.w3.org/1999/xlink" version="1.1" width="612pt" height="612pt" viewBox="0 0 612 612">
<defs>
<clipPath id="clip_1">
<path transform="matrix(1,0,0,-1,0,612)" d="M0 612H612V0H0Z"/>
</clipPath>
<path id="font_2_14" d="M.22636414-.012008667C.3703766-.012008667 .43544007 .091415408 .43544007 .21684265V.65174868H.28808595V.2290802C.28808595 .14215088 .2596283 .115219119 .2069397 .115219119 .17366028 .115219119 .14024353 .13557434 .11613464 .1803894L.015975953 .10588074C.061157228 .026931763 .12669373-.012008667 .22636414-.012008667Z"/>
<path id="font_2_13" d="M.27752687-.012008667C.4030609-.012008667 .51919558 .08328247 .51919558 .24787903 .51919558 .41282655 .4030609 .5081177 .27752687 .5081177 .1519928 .5081177 .035858156 .41282655 .035858156 .24787903 .035858156 .08328247 .1519928-.012008667 .27752687-.012008667M.27752687 .10662842C.21672058 .10662842 .18650818 .16201782 .18650818 .24787903 .18650818 .33374024 .21672058 .3894806 .27752687 .3894806 .33833314 .3894806 .36854554 .33374024 .36854554 .24787903 .36854554 .16201782 .33833314 .10662842 .27752687 .10662842Z"/>
<path id="font_2_12" d="M.32507325-.012008667C.43247987-.012008667 .53378298 .08564758 .53378298 .2566986 .53378298 .40882875 .45942689 .5081177 .3393097 .5081177 .29249574 .5081177 .24568177 .48695375 .20803833 .45318605L.21168518 .52941897V.7005768H.06468201V0H.17967224L.19190979 .05293274H.19555664C.2349701 .010345459 .2807312-.012008667 .32507325-.012008667M.29081727 .10827637C.26600648 .10827637 .23802185 .11639404 .21168518 .1396637V.3433838C.2403717 .37431336 .26670838 .38783265 .29693605 .38783265 .35560609 .38783265 .38313294 .34327699 .38313294 .25422669 .38313294 .15153504 .3420868 .10827637 .29081727 .10827637Z"/>
<path id="font_2_11" d="M0 0Z"/>
<path id="font_2_10" d="M.06468201 0H.21168518V.33468629C.24401856 .36572267 .26660157 .3828888 .30352784 .3828888 .34597779 .3828888 .36514283 .36054994 .36514283 .2891693V0H.512146V.30799867C.512146 .43199159 .46614076 .5081177 .3582611 .5081177 .2906189 .5081177 .2422638 .4734192 .20509339 .43954469L.21168518 .52941897V.7005768H.06468201V0Z"/>
<path id="font_2_9" d="M.21386719-.012008667C.2815094-.012008667 .32821656 .01939392 .3696289 .06880188H.37327577L.38386537 0H.50379946V.49612428H.35679627V.16778565C.32810975 .1287384 .30552674 .113220218 .26860047 .113220218 .22615052 .113220218 .20698548 .13555908 .20698548 .20695496V.49612428H.0599823V.18812561C.0599823 .06411743 .10597229-.012008667 .21386719-.012008667Z"/>
<path id="font_2_8" d="M.06468201 0H.21168518V.33468629C.24401856 .36572267 .26660157 .3828888 .30352784 .3828888 .34597779 .3828888 .36514283 .36054994 .36514283 .2891693V0H.512146V.30799867C.512146 .43199159 .46614076 .5081177 .3582611 .5081177 .2906189 .5081177 .24061585 .4734192 .19885254 .43330384H.19520569L.18461609 .49612428H.06468201V0Z"/>
<path id="font_2_7" d="M.2558899-.012008667C.30403138-.012008667 .33979798-.0023651124 .3661499 .005996704L.3429718 .11273193C.32991029 .10803223 .31214906 .10333252 .29579164 .10333252 .2571106 .10333252 .23156739 .12591553 .23156739 .18214417V.38078309H.35049439V.49612428H.23156739V.6278839H.10998535L.092803958 .49612428 .016815186 .49047853V.38078309H.08456421V.18037415C.08456421 .06541443 .13328552-.012008667 .2558899-.012008667Z"/>
<path id="font_2_6" d="M.06468201 0H.21168518V.33468629C.2429657 .3673706 .2715454 .3828888 .29612733 .3828888 .3378601 .3828888 .35739137 .36054994 .35739137 .2891693V0H.50439456V.33468629C.53567507 .3673706 .56388857 .3828888 .5888214 .3828888 .63056948 .3828888 .65008547 .36054994 .65008547 .2891693V0H.7970886V.30799867C.7970886 .43199159 .74909976 .5081177 .64190676 .5081177 .57637026 .5081177 .52978518 .4701233 .48614503 .42460633 .4610901 .47801209 .41896058 .5081177 .3491974 .5081177 .2840271 .5081177 .23956299 .4734192 .19885254 .43247987H.19520569L.18461609 .49612428H.06468201V0Z"/>
<path id="font_2_5" d="M.1897583-.012008667C.24551392-.012008667 .29232789 .014099121 .3340912 .050811769H.33773805L.34832765 0H.46826173V.28363038C.46826173 .4356537 .39801026 .5081177 .2711792 .5081177 .19317627 .5081177 .12223816 .48130799 .059280397 .44282533L.11152649 .34631349C.15965271 .37361146 .20117188 .39112855 .24281311 .39112855 .29666139 .39112855 .3183136 .36280824 .32125855 .31941224 .12503052 .29870606 .041870119 .24212647 .041870119 .1375885 .041870119 .054000856 .09927368-.012008667 .1897583-.012008667M.23954773 .10168457C.2046051 .10168457 .18263245 .11732483 .18263245 .14930725 .18263245 .18681336 .21672058 .21669007 .32125855 .23078919V.14413452C.29516603 .1181488 .27282716 .10168457 .23954773 .10168457Z"/>
<path id="font_2_4" d="M.2421112-.012008667C.28997804-.012008667 .33903504 .014099121 .37408448 .04916382H.37774659L.38833619 0H.508255V.7005768H.3612671V.53152468L.3665619 .45635987C.33303834 .48776246 .29962159 .5081177 .24491883 .5081177 .14045716 .5081177 .039154054 .41012574 .039154054 .24787903 .039154054 .085876468 .11880493-.012008667 .2421112-.012008667M.280365 .10827637C.2234497 .10827637 .18980408 .15213013 .18980408 .24952698 .18980408 .34387208 .23155213 .38783265 .2791748 .38783265 .30610658 .38783265 .33528138 .37973023 .3612671 .3564453V.15272522C.33692933 .120147708 .3116455 .10827637 .280365 .10827637Z"/>
<path id="font_2_3" d="M.28681947-.012008667C.3456421-.012008667 .41200257 .00869751 .46284486 .043884279L.41423036 .13250733C.37823487 .111450199 .34446717 .10003662 .3069458 .10003662 .24073792 .10003662 .19145203 .13305664 .17826844 .20503235H.47506715C.47789 .21704102 .4811859 .24351502 .4811859 .269989 .4811859 .4053955 .41119386 .5081177 .2698822 .5081177 .1506958 .5081177 .035858156 .40882875 .035858156 .24787903 .035858156 .08363342 .145401-.012008667 .28681947-.012008667M.17662049 .3022461C.18663025 .3649292 .22673035 .3960724 .2731781 .3960724 .3318634 .3960724 .35560609 .35679627 .35560609 .3022461H.17662049Z"/>
<path id="font_2_2" d="M.21128845-.012008667C.34425355-.012008667 .41508485 .05822754 .41508485 .14801026 .41508485 .2387085 .34425355 .2740631 .28144837 .29730226 .2300415 .31600953 .18356323 .328125 .18356323 .35975648 .18356323 .38450624 .20227051 .3993683 .24024964 .3993683 .27459718 .3993683 .30941773 .38267518 .3447113 .35702516L.4105072 .44528199C.36825563 .47740174 .31167604 .5081177 .23565674 .5081177 .121170047 .5081177 .04611206 .44517518 .04611206 .35281373 .04611206 .270813 .11657715 .23045349 .17738343 .20692444 .22843933 .18692017 .2776184 .17210388 .2776184 .13941956 .2776184 .11343384 .25868226 .09674072 .2149353 .09674072 .17341614 .09674072 .13189698 .114852908 .08694458 .14884949L.020812989 .057281496C.07104492 .016342164 .14587403-.012008667 .21128845-.012008667Z"/>
<path id="font_2_1" d="M.12037659-.19400025C.23698426-.19400025 .289917-.12965393 .33699037-.0053863527L.5092163 .49612428H.36845399L.3082428 .28263856C.29589845 .23605347 .28483583 .18899536 .27378846 .14204407H.2697754C.25672914 .19064331 .2449646 .23770142 .23060608 .28263856L.15969849 .49612428H.011993408L.20339966 .012710571 .19599915-.013168335C.18318177-.051620485 .15765381-.078308109 .109191898-.078308109 .098480228-.078308109 .08496094-.0743103 .07577515-.07194519L.0496521-.18399048C.06990051-.18998719 .089538577-.19400025 .12037659-.19400025Z"/>
<path id="font_3_2" d="M.316391-.012008667C.42999269-.012008667 .5391846 .04699707 .5391846 .25279237V.6589966H.4955902V.2579956C.4955902 .082595828 .4113922 .029785157 .316391 .029785157 .22319031 .029785157 .14099121 .082595828 .14099121 .2579956V.6589966H.09500122V.25279237C.09500122 .04699707 .2027893-.012008667 .316391-.012008667Z"/>
<path id="font_3_1" d="M.09719849 .6589966V0H.14318848V.22679138L.27719117 .3795929 .49499513 0H.5479889L.3087921 .41479493 .5189972 .6589966H.46420289L.14538574 .29278565H.14318848V.6589966H.09719849Z"/>
</defs>
<g id="layer_1" data-name="Layer 1">
<path transform="matrix(1,0,0,-1,0,612)" d="M0 0H612V612H0Z" fill="#ffffff"/>
<g clip-path="url(#clip_1)">
<path transform="matrix(1,0,0,-1,153.4796,293.2574)" d="M0 0H9.003L11.696-16.13C12.207-19.771 12.768-23.411 13.281-27.052H13.519C14.276-23.411 15.055-19.727 15.833-16.13L20.013 0H27.466L31.645-16.13C32.423-19.64 33.202-23.367 33.981-27.052H34.219C34.731-23.367 35.271-19.683 35.783-16.13L38.475 0H46.868L39.967-34.535H28.921L25.121-18.849C24.504-16.181 23.985-13.413 23.564-10.832H23.325C22.855-13.413 22.365-16.181 21.747-18.849L18.067-34.535H7.217Z" fill="#202557"/>
<path transform="matrix(1,0,0,-1,223.1183,314.6571)" d="M0 0C0 4.549-1.801 7.503-5.427 7.503-9.052 7.503-10.854 4.549-10.854 0-10.854-4.55-9.052-7.485-5.427-7.485-1.801-7.485 0-4.55 0 0M-19.836 0C-19.836 8.74-12.912 13.789-5.427 13.789 2.059 13.789 8.982 8.74 8.982 0 8.982-8.721 2.059-13.771-5.427-13.771-12.912-13.771-19.836-8.721-19.836 0" fill="#202557"/>
<path transform="matrix(1,0,0,-1,238.0888,301.5038)" d="M0 0H7.151L7.783-4.594H8C10.154-1.084 13.388 .636 16.404 .636 18.095 .636 19.077 .442 19.933 .106L18.473-6.617C17.421-6.386 16.551-6.193 15.281-6.193 13.051-6.193 10.343-7.47 8.765-11.055V-26.288H0Z" fill="#202557"/>
<path transform="matrix(1,0,0,-1,261.8173,290.6709)" d="M0 0H8.569V-21.266H8.786L18.169-10.833H27.685L17.324-21.668 28.47-37.121H18.975L12.32-26.869 8.569-30.651V-37.121H0Z" fill="#202557"/>
<path transform="matrix(1,0,0,-1,292.7071,323.4353)" d="M0 0 5.046 5.357C7.81 3.219 11.394 1.749 14.592 1.749 18.259 1.749 20.054 3.032 20.054 5.081 20.054 7.256 17.845 7.954 14.449 9.194L9.399 11.107C5.373 12.563 1.557 15.503 1.557 20.521 1.557 26.244 7.31 30.814 15.399 30.814 19.874 30.814 24.553 29.246 27.9 26.288L23.465 21.368C20.904 23.113 18.471 24.073 15.399 24.073 12.37 24.073 10.441 22.951 10.441 20.976 10.441 18.858 12.984 18.088 16.375 16.888L21.327 15.106C26.073 13.401 29.036 10.592 29.036 5.712 29.036-.024 23.655-4.992 14.395-4.992 9.338-4.992 3.964-3.291 0 0" fill="#202557"/>
<path transform="matrix(1,0,0,-1,325.9189,314.6571)" d="M0 0C0 8.74 7.24 13.789 15.413 13.789 19.053 13.789 21.852 12.636 24.055 10.959L19.914 5.951C18.498 7.017 17.313 7.503 15.904 7.503 11.689 7.503 8.982 4.549 8.982 0 8.982-4.55 11.802-7.485 15.609-7.485 17.551-7.485 19.41-6.631 20.946-5.547L24.377-10.642C21.501-12.898 17.832-13.771 14.626-13.771 6.369-13.771 0-8.721 0 0" fill="#202557"/>
<path transform="matrix(1,0,0,-1,371.9278,314.6571)" d="M0 0C0 4.549-1.802 7.503-5.427 7.503-9.052 7.503-10.854 4.549-10.854 0-10.854-4.55-9.052-7.485-5.427-7.485-1.802-7.485 0-4.55 0 0M-19.836 0C-19.836 8.74-12.913 13.789-5.427 13.789 2.059 13.789 8.982 8.74 8.982 0 8.982-8.721 2.059-13.771-5.427-13.771-12.913-13.771-19.836-8.721-19.836 0" fill="#202557"/>
<path transform="matrix(1,0,0,-1,386.6176,317.8237)" d="M0 0V16.32H8.765V.998C8.765-2.785 9.908-3.969 12.439-3.969 14.641-3.969 15.987-3.146 17.698-1.078V16.32H26.462V-9.968H19.312L18.68-6.322H18.463C15.994-8.94 13.21-10.604 9.175-10.604 2.743-10.604 0-6.571 0 0" fill="#202557"/>
<path transform="matrix(1,0,0,-1,421.9476,318.2341)" d="M0 0V10.619H-4.04V16.431L.491 16.73 1.516 23.712H8.765V16.73H15.856V10.619H8.765V.093C8.765-2.886 10.288-4.082 12.595-4.082 13.57-4.082 14.629-3.833 15.407-3.584L16.79-9.24C15.218-9.682 13.085-10.194 10.216-10.194 2.905-10.194 0-6.091 0 0" fill="#202557"/>
</g>
<use data-text="&#xfffd;" xlink:href="#font_2_14" transform="matrix(19,0,0,-19,204.2822,348.5244)" fill="#b82029"/>
<use data-text="&#xfffd;" xlink:href="#font_2_13" transform="matrix(19,0,0,-19,215.5302,348.5244)" fill="#b82029"/>
<use data-text="&#xfffd;" xlink:href="#font_2_12" transform="matrix(19,0,0,-19,227.5002,348.5244)" fill="#b82029"/>
<use data-text="&#xfffd;" xlink:href="#font_2_11" transform="matrix(19,0,0,-19,239.81221,348.5244)" fill="#b82029"/>
<use data-text="&#xfffd;" xlink:href="#font_2_10" transform="matrix(19,0,0,-19,245.18921,348.5244)" fill="#b82029"/>
<use data-text="&#xfffd;" xlink:href="#font_2_9" transform="matrix(19,0,0,-19,257.6152,348.5244)" fill="#b82029"/>
<use data-text="&#xfffd;" xlink:href="#font_2_8" transform="matrix(19,0,0,-19,269.9842,348.5244)" fill="#b82029"/>
<use data-text="&#xfffd;" xlink:href="#font_2_7" transform="matrix(19,0,0,-19,282.4292,348.5244)" fill="#b82029"/>
<use data-text="&#xfffd;" xlink:href="#font_2_11" transform="matrix(19,0,0,-19,291.2832,348.5244)" fill="#b82029"/>
<use data-text="&#xfffd;" xlink:href="#font_2_6" transform="matrix(19,0,0,-19,296.66023,348.5244)" fill="#b82029"/>
<use data-text="&#xfffd;" xlink:href="#font_2_5" transform="matrix(19,0,0,-19,314.5202,348.5244)" fill="#b82029"/>
<use data-text="&#xfffd;" xlink:href="#font_2_4" transform="matrix(19,0,0,-19,326.1102,348.5244)" fill="#b82029"/>
<use data-text="&#xfffd;" xlink:href="#font_2_3" transform="matrix(19,0,0,-19,338.5742,348.5244)" fill="#b82029"/>
<use data-text="&#xfffd;" xlink:href="#font_2_11" transform="matrix(19,0,0,-19,349.9932,348.5244)" fill="#b82029"/>
<use data-text="&#xfffd;" xlink:href="#font_2_3" transform="matrix(19,0,0,-19,355.3702,348.5244)" fill="#b82029"/>
<use data-text="&#xfffd;" xlink:href="#font_2_5" transform="matrix(19,0,0,-19,366.5802,348.5244)" fill="#b82029"/>
<use data-text="&#xfffd;" xlink:href="#font_2_2" transform="matrix(19,0,0,-19,378.1702,348.5244)" fill="#b82029"/>
<use data-text="&#xfffd;" xlink:href="#font_2_1" transform="matrix(19,0,0,-19,388.16419,348.5244)" fill="#b82029"/>
<use data-text="&#xfffd;" xlink:href="#font_3_2" transform="matrix(13,0,0,-13,442.854,299.9028)" fill="#b82029"/>
<use data-text="&#xfffd;" xlink:href="#font_3_1" transform="matrix(13,0,0,-13,451.096,299.9028)" fill="#b82029"/>
</g>
</svg>
