<?xml version="1.0" encoding="UTF-8" standalone="no"?>
<svg
   xmlns:dc="http://purl.org/dc/elements/1.1/"
   xmlns:cc="http://creativecommons.org/ns#"
   xmlns:rdf="http://www.w3.org/1999/02/22-rdf-syntax-ns#"
   xmlns:svg="http://www.w3.org/2000/svg"
   xmlns="http://www.w3.org/2000/svg"
   viewBox="0 0 816 816"
   height="816"
   width="816"
   xml:space="preserve"
   id="svg2"
   version="1.1"><metadata
     id="metadata8"><rdf:RDF><cc:Work
         rdf:about=""><dc:format>image/svg+xml</dc:format><dc:type
           rdf:resource="http://purl.org/dc/dcmitype/StillImage" /></cc:Work></rdf:RDF></metadata><defs
     id="defs6"><clipPath
       id="clipPath20"
       clipPathUnits="userSpaceOnUse"><path
         id="path18"
         d="M 0,612 H 612 V 0 H 0 Z" /></clipPath></defs><g
     transform="matrix(1.3333333,0,0,-1.3333333,0,816)"
     id="g10"><path
       id="path12"
       style="fill:#ffffff;fill-opacity:1;fill-rule:nonzero;stroke:none"
       d="M 0,0 H 612 V 612 H 0 Z" /><g
       id="g14"><g
         clip-path="url(#clipPath20)"
         id="g16"><g
           transform="translate(153.4796,318.7426)"
           id="g22"><path
             id="path24"
             style="fill:#212753;fill-opacity:1;fill-rule:nonzero;stroke:none"
             d="m 0,0 h 9.003 l 2.693,-16.13 c 0.511,-3.641 1.072,-7.281 1.585,-10.922 h 0.238 c 0.757,3.641 1.536,7.325 2.314,10.922 L 20.013,0 h 7.453 l 4.179,-16.13 c 0.778,-3.51 1.557,-7.237 2.336,-10.922 h 0.238 c 0.512,3.685 1.052,7.369 1.564,10.922 L 38.475,0 h 8.393 L 39.967,-34.535 H 28.921 l -3.8,15.686 c -0.617,2.668 -1.136,5.436 -1.557,8.017 h -0.239 c -0.47,-2.581 -0.96,-5.349 -1.578,-8.017 l -3.68,-15.686 H 7.217 Z" /></g><g
           transform="translate(223.1183,297.3429)"
           id="g26"><path
             id="path28"
             style="fill:#212753;fill-opacity:1;fill-rule:nonzero;stroke:none"
             d="m 0,0 c 0,4.549 -1.801,7.503 -5.427,7.503 -3.625,0 -5.427,-2.954 -5.427,-7.503 0,-4.55 1.802,-7.485 5.427,-7.485 C -1.801,-7.485 0,-4.55 0,0 m -19.836,0 c 0,8.74 6.924,13.789 14.409,13.789 C 2.059,13.789 8.982,8.74 8.982,0 c 0,-8.721 -6.923,-13.771 -14.409,-13.771 -7.485,0 -14.409,5.05 -14.409,13.771" /></g><g
           transform="translate(238.0888,310.4962)"
           id="g30"><path
             id="path32"
             style="fill:#212753;fill-opacity:1;fill-rule:nonzero;stroke:none"
             d="M 0,0 H 7.151 L 7.783,-4.594 H 8 c 2.154,3.51 5.388,5.23 8.404,5.23 1.691,0 2.673,-0.194 3.529,-0.53 l -1.46,-6.723 c -1.052,0.231 -1.922,0.424 -3.192,0.424 -2.23,0 -4.938,-1.277 -6.516,-4.862 V -26.288 H 0 Z" /></g><g
           transform="translate(261.8173,321.3291)"
           id="g34"><path
             id="path36"
             style="fill:#212753;fill-opacity:1;fill-rule:nonzero;stroke:none"
             d="m 0,0 h 8.569 v -21.266 h 0.217 l 9.383,10.433 h 9.516 L 17.324,-21.668 28.47,-37.121 h -9.495 l -6.655,10.252 -3.751,-3.782 v -6.47 H 0 Z" /></g><g
           transform="translate(292.7071,288.5647)"
           id="g38"><path
             id="path40"
             style="fill:#212753;fill-opacity:1;fill-rule:nonzero;stroke:none"
             d="m 0,0 5.046,5.357 c 2.764,-2.138 6.348,-3.608 9.546,-3.608 3.667,0 5.462,1.283 5.462,3.332 0,2.175 -2.209,2.873 -5.605,4.113 l -5.05,1.913 c -4.026,1.456 -7.842,4.396 -7.842,9.414 0,5.723 5.753,10.293 13.842,10.293 4.475,0 9.154,-1.568 12.501,-4.526 l -4.435,-4.92 c -2.561,1.745 -4.994,2.705 -8.066,2.705 -3.029,0 -4.958,-1.122 -4.958,-3.097 0,-2.118 2.543,-2.888 5.934,-4.088 l 4.952,-1.782 c 4.746,-1.705 7.709,-4.514 7.709,-9.394 0,-5.736 -5.381,-10.704 -14.641,-10.704 C 9.338,-4.992 3.964,-3.291 0,0" /></g><g
           transform="translate(325.9189,297.3429)"
           id="g42"><path
             id="path44"
             style="fill:#212753;fill-opacity:1;fill-rule:nonzero;stroke:none"
             d="m 0,0 c 0,8.74 7.24,13.789 15.413,13.789 3.64,0 6.439,-1.153 8.642,-2.83 L 19.914,5.951 C 18.498,7.017 17.313,7.503 15.904,7.503 11.689,7.503 8.982,4.549 8.982,0 c 0,-4.55 2.82,-7.485 6.627,-7.485 1.942,0 3.801,0.854 5.337,1.938 l 3.431,-5.095 c -2.876,-2.256 -6.545,-3.129 -9.751,-3.129 C 6.369,-13.771 0,-8.721 0,0" /></g><g
           transform="translate(371.9278,297.3429)"
           id="g46"><path
             id="path48"
             style="fill:#212753;fill-opacity:1;fill-rule:nonzero;stroke:none"
             d="m 0,0 c 0,4.549 -1.802,7.503 -5.427,7.503 -3.625,0 -5.427,-2.954 -5.427,-7.503 0,-4.55 1.802,-7.485 5.427,-7.485 C -1.802,-7.485 0,-4.55 0,0 m -19.836,0 c 0,8.74 6.923,13.789 14.409,13.789 C 2.059,13.789 8.982,8.74 8.982,0 c 0,-8.721 -6.923,-13.771 -14.409,-13.771 -7.486,0 -14.409,5.05 -14.409,13.771" /></g><g
           transform="translate(386.6176,294.1763)"
           id="g50"><path
             id="path52"
             style="fill:#212753;fill-opacity:1;fill-rule:nonzero;stroke:none"
             d="M 0,0 V 16.32 H 8.765 V 0.998 c 0,-3.783 1.143,-4.967 3.674,-4.967 2.202,0 3.548,0.823 5.259,2.891 V 16.32 h 8.764 V -9.968 h -7.15 L 18.68,-6.322 H 18.463 C 15.994,-8.94 13.21,-10.604 9.175,-10.604 2.743,-10.604 0,-6.571 0,0" /></g><g
           transform="translate(421.9476,293.7659)"
           id="g54"><path
             id="path56"
             style="fill:#212753;fill-opacity:1;fill-rule:nonzero;stroke:none"
             d="m 0,0 v 10.619 h -4.04 v 5.812 l 4.531,0.299 1.025,6.982 H 8.765 V 16.73 h 7.091 V 10.619 H 8.765 V 0.093 c 0,-2.979 1.523,-4.175 3.83,-4.175 0.975,0 2.034,0.249 2.812,0.498 L 16.79,-9.24 C 15.218,-9.682 13.085,-10.194 10.216,-10.194 2.905,-10.194 0,-6.091 0,0" /></g></g></g><text
       id="text60"
       style="font-variant:normal;font-weight:200;font-stretch:normal;font-size:19px;font-family:'Source Sans Variable';-inkscape-font-specification:SourceSansVariable-Roman;writing-mode:lr-tb;fill:#b91d28;fill-opacity:1;fill-rule:nonzero;stroke:none"
       transform="matrix(1,0,0,-1,204.2822,263.4756)"><tspan
         id="tspan58"
         y="0"
         x="0 11.248 23.218 35.529999 40.907001 53.333 65.702003 78.147003 87.000999 92.377998 110.238 121.828 134.29201 145.711 151.088 162.298 173.888 183.882"></tspan></text>
<text
       id="text64"
       style="font-variant:normal;font-weight:200;font-stretch:normal;font-size:13px;font-family:'Source Sans Variable';-inkscape-font-specification:SourceSansVariable-Roman;writing-mode:lr-tb;fill:#b91d28;fill-opacity:1;fill-rule:nonzero;stroke:none"
       transform="matrix(1,0,0,-1,442.854,312.0972)"><tspan
         id="tspan62"
         y="0"
         x="0 8.2419996"></tspan></text>
</g></svg>